<svg width="1920" height="1080" viewBox="0 0 1920 1080" xmlns="http://www.w3.org/2000/svg"><path d="M 0,1080 C 0,1080 0,270 0,270 C 138.66028708133973,260.200956937799 277.32057416267946,250.40191387559804 398,274 C 518.6794258373205,297.59808612440196 621.3779904306222,354.5933014354067 752,355 C 882.6220095693778,355.4066985645933 1041.1674641148325,299.22488038277515 1192,288 C 1342.8325358851675,276.77511961722485 1485.9521531100481,310.5071770334928 1606,315 C 1726.0478468899519,319.4928229665072 1823.023923444976,294.7464114832536 1920,270 C 1920,270 1920,1080 1920,1080 Z" fill="#85f875" opacity="0.15"/><path d="M 0,1080 C 0,1080 0,540 0,540 C 123.04306220095694,597.090909090909 246.08612440191388,654.1818181818181 369,618 C 491.9138755980861,581.8181818181819 614.6985645933015,452.3636363636364 725,460 C 835.3014354066985,467.6363636363636 933.1196172248801,612.3636363636365 1081,629 C 1228.8803827751199,645.6363636363635 1426.8229665071772,534.1818181818181 1575,498 C 1723.1770334928228,461.81818181818187 1821.5885167464114,500.90909090909093 1920,540 C 1920,540 1920,1080 1920,1080 Z" fill="#85f875" opacity="0.3"/><path d="M 0,1080 C 0,1080 0,810 0,810 C 149.66507177033498,760.133971291866 299.33014354066995,710.2679425837321 427,736 C 554.66985645933,761.7320574162679 660.3444976076554,863.0622009569378 787,884 C 913.6555023923446,904.9377990430622 1061.2918660287082,845.4832535885167 1181,808 C 1300.7081339712918,770.5167464114833 1392.4880382775118,755.0047846889952 1511,759 C 1629.5119617224882,762.9952153110048 1774.755980861244,786.4976076555024 1920,810 C 1920,810 1920,1080 1920,1080 Z" fill="#85f875" opacity="0.44999999999999996"/></svg>